<?xml version="1.0" encoding="UTF-8" standalone="no"?>
<!-- Generator: Adobe Illustrator 24.2.1, SVG Export Plug-In . SVG Version: 6.00 Build 0)  -->

<svg
   version="1.1"
   id="Layer_1"
   x="0px"
   y="0px"
   viewBox="0 0 75 75"
   style="enable-background:new 0 0 75 75;"
   xml:space="preserve"
   sodipodi:docname="logo.svg"
   inkscape:version="1.4 (e7c3feb100, 2024-10-09)"
   xmlns:inkscape="http://www.inkscape.org/namespaces/inkscape"
   xmlns:sodipodi="http://sodipodi.sourceforge.net/DTD/sodipodi-0.dtd"
   xmlns="http://www.w3.org/2000/svg"
   xmlns:svg="http://www.w3.org/2000/svg"><defs
   id="defs1" /><sodipodi:namedview
   id="namedview1"
   pagecolor="#ffffff"
   bordercolor="#666666"
   borderopacity="1.0"
   inkscape:showpageshadow="2"
   inkscape:pageopacity="0.0"
   inkscape:pagecheckerboard="0"
   inkscape:deskcolor="#d1d1d1"
   inkscape:zoom="12.4"
   inkscape:cx="37.620968"
   inkscape:cy="37.419355"
   inkscape:window-width="1916"
   inkscape:window-height="1152"
   inkscape:window-x="0"
   inkscape:window-y="0"
   inkscape:window-maximized="1"
   inkscape:current-layer="g1" />
<g
   id="g1"
   transform="matrix(0.24019174,0,0,0.24019174,30.373181,24.176737)"><path
     style="fill:#48766f;fill-rule:evenodd;stroke:none;stroke-width:4.16334px;stroke-linecap:butt;stroke-linejoin:miter;stroke-opacity:1;fill-opacity:0.98622;opacity:0.5"
     d="M 33.364666,-84.20408 V 44.725175 l 56.742301,-0.335774 33.575323,-17.123419 19.13794,-37.604366 -3.02178,-35.589846 -24.84574,-28.203273 -35.254095,-13.43013 z"
     id="path1" /><path
     style="font-size:50.8px;line-height:125%;font-family:COCOMAT;-inkscape-font-specification:'COCOMAT, Normal';text-align:center;letter-spacing:-0.00264583px;word-spacing:0px;text-anchor:middle;opacity:0.701;fill:#000000;fill-opacity:0.99;stroke:#000000;stroke-width:0.999999px"
     d="m 140.82365,-29.538639 c 0.89124,-0.624053 1.76417,-0.883707 2.61881,-0.778961 0.85464,0.104731 1.58348,0.531972 2.18655,1.281619 l 26.54054,37.9037974 c 3.72858,5.4365556 6.61047,11.1144186 8.64559,17.0335826 2.07183,5.971582 3.32841,12.006195 3.76967,18.103843 0.53038,6.113363 0.24302,12.174417 -0.86257,18.183141 -1.01631,6.024438 -2.83763,11.792043 -5.46349,17.30293 -2.53565,5.527147 -5.81836,10.715055 -9.84433,15.565474 -3.98934,4.902838 -8.68392,9.244763 -14.08377,13.025783 -5.39985,3.78101 -11.08557,6.70744 -17.05715,8.7793 -5.88245,2.08756 -11.89871,3.37033 -18.04879,3.84831 -6.06093,0.49369 -12.14034,0.17994 -18.23819,-0.94121 -6.008732,-1.10545 -11.794731,-2.95285 -17.358007,-5.54215 C 78.117663,111.60081 72.89247,108.26694 67.952922,104.2252 63.102507,100.19919 58.786789,95.486255 55.005773,90.086406 L 29.126009,53.12627 c -0.477214,-0.681532 -0.770937,-1.491561 -0.881178,-2.430047 -0.07351,-0.886073 0.33532,-1.641128 1.226585,-2.265177 z M 63.33355,83.903662 c 3.303798,4.718317 7.082014,8.830984 11.334644,12.338022 4.25263,3.507028 8.783052,6.350766 13.591265,8.531226 4.808205,2.18046 9.797223,3.72647 14.967031,4.63804 5.25894,0.9273 10.50206,1.1625 15.72935,0.70563 5.22729,-0.45688 10.36798,-1.59534 15.42206,-3.4154 5.14321,-1.80433 9.99534,-4.30334 14.55638,-7.497015 7.12989,-4.992412 12.77325,-10.936233 16.93006,-17.831467 4.20924,-6.931941 6.90052,-14.246423 8.07391,-21.943435 1.2101,-7.644578 0.91801,-15.370227 -0.8762,-23.176928 -0.42872,-1.930496 -0.94919,-3.829845 -1.56148,-5.698062 -1.87539,-5.722159 -4.61186,-11.152187 -8.20945,-16.290074 L 141.43097,-16.955322 41.638593,52.920051 Z"
     id="path2"
     aria-label="D"
     sodipodi:nodetypes="sscccccccscccccsscssssssscscccssccs"
     inkscape:transform-center-x="-20.73483"
     inkscape:transform-center-y="-1.2741266" /><path
     style="font-size:50.8px;line-height:125%;font-family:COCOMAT;-inkscape-font-specification:'COCOMAT, Normal';text-align:center;letter-spacing:-0.00264583px;word-spacing:0px;text-anchor:middle;fill:#000000;fill-opacity:0.98622;stroke:#000000;stroke-width:0.999999px"
     d="m 27.53877,-87.851999 c 0,-1.088002 0.288,-1.952002 0.864,-2.592 0.576,-0.639999 1.344,-0.992002 2.304,-1.056 h 46.271997 c 6.591999,0.06399 12.896001,0.96 18.912,2.688 6.080003,1.728 11.744003,4.160001 16.992003,7.296 5.312,3.072 10.112,6.783998 14.4,11.136 4.352,4.287999 8.032,9.087999 11.04,14.4 3.072,5.247999 5.44,10.911999 7.104,16.992 1.728,6.080001 2.592,12.416001 2.592,19.008 0,6.591999 -0.864,12.9279992 -2.592,19.00800052 -1.664,6.01599878 -4.064,11.67999848 -7.2,16.99200048 -3.072,5.247998 -6.816,10.047999 -11.232,14.4 -4.352,4.287999 -9.184,7.968 -14.496,11.04 -5.312,3.008001 -11.04,5.376 -17.184003,7.104 -6.080001,1.664001 -12.416001,2.496 -19.008,2.496 H 31.18677 c -0.831999,0 -1.664001,-0.224013 -2.496,-0.672 -0.768,-0.447999 -1.152,-1.215999 -1.152,-2.304 z M 76.018767,40.692002 c 5.76,0 11.295999,-0.735999 16.608,-2.208 5.312001,-1.472001 10.240003,-3.552 14.784003,-6.24 4.544,-2.688 8.672,-5.888001 12.384,-9.6 3.776,-3.776002 6.976,-7.935999 9.6,-12.48 2.624,-4.5440017 4.64,-9.40800046 6.048,-14.5920005 1.472,-5.2479988 2.208,-10.6560005 2.208,-16.2240005 0,-8.703999 -1.632,-16.736001 -4.896,-24.096 -3.264,-7.424001 -7.712,-13.824 -13.344,-19.2 -5.568,-5.376 -12.064,-9.567999 -19.488003,-12.576 -1.827265,-0.75611 -3.681668,-1.419168 -5.563211,-1.989177 -5.76299,-1.745881 -11.780588,-2.618823 -18.052789,-2.618823 H 38.194766 V 40.692002 Z"
     id="text1"
     aria-label="D"
     sodipodi:nodetypes="sscccccccscccccsscssssssscscccssccs"
     inkscape:transform-center-x="-15.771025"
     inkscape:transform-center-y="-18.609149" /><path
     style="font-size:50.8px;line-height:125%;font-family:COCOMAT;-inkscape-font-specification:'COCOMAT, Normal';text-align:center;letter-spacing:-0.00264583px;word-spacing:0px;text-anchor:middle;opacity:0.5;fill:#000000;fill-opacity:0.98622;stroke:#000000;stroke-width:0.999999px"
     d="m 158.03368,96.706067 c 1.02238,0.372133 1.73577,0.938257 2.14017,1.698414 0.40441,0.760154 0.47248,1.602239 0.20432,2.526229 l -15.82594,43.48145 c -2.31474,6.17257 -5.31279,11.78997 -8.99419,16.85212 -3.70328,5.12232 -7.92581,9.61293 -12.66761,13.47186 -4.70356,3.94095 -9.83331,7.18205 -15.3895,9.72287 -5.51787,2.62296 -11.287078,4.43917 -17.307464,5.4491 -5.981965,1.09315 -12.114532,1.37979 -18.396964,0.864 -6.304358,-0.45573 -12.553766,-1.81088 -18.748215,-4.06545 -6.194453,-2.25464 -11.852836,-5.23355 -16.975162,-8.9368 -5.084066,-3.62125 -9.585634,-7.81372 -13.50471,-12.5774 -3.880819,-4.68167 -7.110814,-9.84159 -9.690002,-15.47974 C 10.337479,144.15659 8.5320663,138.35736 7.4621274,132.31504 6.4523396,126.2946 6.186242,120.10214 6.6638269,113.73765 7.1796606,107.4552 8.5648763,101.21674 10.81947,95.022288 L 26.251421,52.623366 c 0.284561,-0.781822 0.779622,-1.48704 1.485154,-2.115636 0.683664,-0.568449 1.536666,-0.666637 2.559066,-0.294501 z M 20.660688,98.297729 c -1.970038,5.412631 -3.171841,10.866491 -3.605432,16.361601 -0.43358,5.49509 -0.164485,10.8373 0.807258,16.02662 0.971743,5.18932 2.566916,10.16283 4.785472,14.92054 2.256812,4.83976 5.071476,9.26956 8.443978,13.28946 3.372496,4.01991 7.253651,7.57792 11.643455,10.67403 4.428049,3.17813 9.258183,5.71941 14.490391,7.62376 8.179083,2.97695 16.284877,4.19048 24.317364,3.64059 8.092637,-0.528 15.627969,-2.51882 22.606016,-5.97248 6.95616,-3.39349 13.11711,-8.064 18.48286,-14.01147 1.33547,-1.45848 2.59279,-2.97426 3.77195,-4.54737 3.61164,-4.81833 6.49008,-10.17445 8.6353,-16.0684 L 148.07437,104.42105 33.597258,62.75479 Z"
     id="path13"
     aria-label="D"
     sodipodi:nodetypes="sscccccccscccccsscssssssscscccssccs"
     inkscape:transform-center-x="-14.635278"
     inkscape:transform-center-y="18.62474" /><path
     style="font-size:50.8px;line-height:125%;font-family:COCOMAT;-inkscape-font-specification:'COCOMAT, Normal';text-align:center;letter-spacing:-0.00264583px;word-spacing:0px;text-anchor:middle;opacity:0.2;fill:#000000;fill-opacity:0.98622;stroke:#000000;stroke-width:0.999999px"
     d="m 64.491332,183.80973 c 0.281575,1.05093 0.227037,1.96002 -0.163691,2.72731 -0.39072,0.76728 -1.041471,1.30605 -1.952168,1.61635 l -44.69531,11.97608 c -6.383958,1.64432 -12.7050706,2.41046 -18.9633031,2.29836 -6.3200732,-0.0956 -12.4205029,-0.97867 -18.3013459,-2.64956 -5.926087,-1.59246 -11.523341,-3.93551 -16.791564,-7.0295 -5.313517,-3.01554 -10.110357,-6.69963 -14.390793,-11.05199 -4.326573,-4.27313 -8.078869,-9.1322 -11.25981,-14.57435 -3.242718,-5.42562 -5.717156,-11.3221 -7.423314,-17.68947 -1.706101,-6.36741 -2.511435,-12.71112 -2.415949,-19.03119 0.05023,-6.24169 0.902528,-12.33386 2.556816,-18.27651 1.609047,-5.86428 3.983161,-11.46974 7.122301,-16.816401 3.093898,-5.268279 6.808807,-10.073488 11.144689,-14.415662 4.35247,-4.280353 9.272409,-8.050179 14.759819,-11.309481 5.442157,-3.180922 11.346928,-5.624451 17.714309,-7.33059 L 25.014586,50.575221 c 0.803649,-0.21532 1.665286,-0.214299 2.58488,0.0031 0.857778,0.23399 1.42747,0.876393 1.709057,1.927343 z M -15.606389,72.193295 c -5.563733,1.490797 -10.7206,3.634545 -15.470627,6.431233 -4.750012,2.796688 -8.971745,6.081282 -12.665216,9.853757 -3.693472,3.772479 -6.852586,7.931861 -9.477358,12.478105 -2.670048,4.62464 -4.684298,9.47111 -6.042823,14.53942 -1.358532,5.06831 -2.046943,10.28836 -2.065243,15.66013 -0.06353,5.45017 0.625213,10.86438 2.066328,16.24265 2.252761,8.40741 5.907988,15.74336 10.965668,22.00778 5.074258,6.32624 11.027139,11.35695 17.858654,15.0921 6.769667,3.75171 14.129306,6.11959 22.078851,7.10362 1.9607131,0.25739 3.9235389,0.41791 5.8884964,0.48155 6.0184971,0.19465 12.0569803,-0.51949 18.1154646,-2.14284 L 52.459165,180.07669 20.928792,62.403721 Z"
     id="path14"
     aria-label="D"
     sodipodi:nodetypes="sscccccccscccccsscssssssscscccssccs"
     inkscape:transform-center-x="8.4069714"
     inkscape:transform-center-y="20.03364" /><path
     style="font-size:50.8px;line-height:125%;font-family:COCOMAT;-inkscape-font-specification:'COCOMAT, Normal';text-align:center;letter-spacing:-0.00264583px;word-spacing:0px;text-anchor:middle;opacity:0.0657055;fill:#000000;fill-opacity:0.98622;stroke:#000000;stroke-width:0.999999px"
     d="m -60.026066,156.80364 c -0.699368,0.83343 -1.475335,1.31018 -2.327966,1.43022 -0.852628,0.12018 -1.667222,-0.10394 -2.443756,-0.672 l -35.446402,-29.74308 c -5.00864,-4.28628 -9.26187,-9.02479 -12.75962,-14.21553 -3.54672,-5.23195 -6.32243,-10.73563 -8.32682,-16.511315 -2.0946,-5.767767 -3.38574,-11.696682 -3.87302,-17.786801 -0.57753,-6.08222 -0.31105,-12.124672 0.79903,-18.127405 1.01873,-5.99509 2.84682,-11.855841 5.48025,-17.583001 2.58447,-5.768288 5.9953,-11.17731 10.23253,-16.227088 4.2373,-5.049751 8.971841,-9.348045 14.203712,-12.894875 5.1417,-3.538934 10.620976,-6.3351004 16.437771,-8.3885555 5.726645,-2.0455522 11.680108,-3.3159572 17.860369,-3.8112416 6.090112,-0.4873853 12.157092,-0.2004662 18.20095,0.8607118 6.002737,1.1102249 11.912757,2.9781203 17.73007,5.6036863 5.727152,2.63345 11.11561,6.068806 16.1653799,10.306057 l 34.5639121,29.00258 c 0.637334,0.534807 1.130714,1.241204 1.480097,2.119181 0.300321,0.836863 0.100876,1.671991 -0.598515,2.505456 z M -14.537399,27.170863 c -4.412417,-3.702456 -9.126327,-6.697111 -14.141745,-8.98399 -5.015407,-2.286868 -10.127475,-3.861143 -15.336197,-4.722856 -5.208722,-0.86171 -10.427879,-1.063782 -15.657453,-0.606252 -5.31976,0.465415 -10.445076,1.595252 -15.376017,3.389481 -4.930938,1.794217 -9.601807,4.224404 -14.012603,7.290535 -4.50096,3.074044 -8.540973,6.743697 -12.120006,11.009038 -5.59481,6.667646 -9.50752,13.869558 -11.73806,21.605688 -2.27169,7.785177 -2.97816,15.546985 -2.11943,23.285432 0.8097,7.69728 3.09137,15.084098 6.84496,22.160401 0.91378,1.75376 1.90813,3.45368 2.98305,5.09979 3.29262,5.0417 7.341142,9.57852 12.145912,13.61023 l 29.195482,24.49793 78.306975,-93.322626 z"
     id="path17"
     aria-label="D"
     sodipodi:nodetypes="sscccccccscccccsscssssssscscccssccs"
     inkscape:transform-center-x="20.340873"
     inkscape:transform-center-y="7.7907264" /></g>
</svg>
