<?xml version="1.0" encoding="UTF-8" standalone="no"?>
<!-- Generator: Adobe Illustrator 24.2.1, SVG Export Plug-In . SVG Version: 6.00 Build 0)  -->

<svg
   version="1.1"
   id="Layer_1"
   x="0px"
   y="0px"
   viewBox="0 0 75 75"
   style="enable-background:new 0 0 75 75;"
   xml:space="preserve"
   xmlns="http://www.w3.org/2000/svg"
   xmlns:svg="http://www.w3.org/2000/svg"><defs
   id="defs1" />
<g
   id="g1"
   transform="matrix(0.24019174,0,0,0.24019174,30.373181,24.176737)"><path
     style="opacity:0.5;fill:#48766f;fill-opacity:0.98622;fill-rule:evenodd;stroke:none;stroke-width:8.56984px;stroke-linecap:butt;stroke-linejoin:miter;stroke-opacity:1"
     d="M -82.980552,-73.769414 V 191.61918 L 33.818069,190.92802 102.92967,155.68109 142.3233,78.276084 136.10325,5.0177763 84.960664,-53.035974 12.393468,-80.680617 Z"
     id="path1" /><path
     style="font-size:50.8px;line-height:125%;font-family:COCOMAT;-inkscape-font-specification:'COCOMAT, Normal';text-align:center;letter-spacing:-0.00264583px;word-spacing:0px;text-anchor:middle;fill:#000000;fill-opacity:0.98622;stroke:#000000;stroke-width:2.0584px"
     d="m -94.326926,-83.744748 c 0,-2.239548 0.592817,-4.01801 1.778458,-5.335385 1.185641,-1.317377 2.766496,-2.041941 4.742564,-2.173675 H 7.4405941 c 13.5690019,0.131717 26.5451889,1.976068 38.9285499,5.532992 12.515107,3.556923 24.173911,8.562965 34.97642,15.018121 10.934245,6.323419 20.814586,13.964213 29.641026,22.922395 8.95818,8.826437 16.5331,18.70678 22.72479,29.641028 6.32342,10.8025059 11.19772,22.4613103 14.6229,34.976413 3.55693,12.515103 5.33539,25.557155 5.33539,39.126157 0,13.569002 -1.77846,26.611055 -5.33539,39.126158 -3.42518,12.383364 -8.36535,24.042164 -14.82051,34.976414 -6.32342,10.80251 -14.03009,20.68285 -23.12,29.64103 -8.95818,8.82644 -18.904388,16.40137 -29.838634,22.72479 -10.934246,6.19168 -22.724788,11.06598 -35.371633,14.62291 -12.515103,3.42518 -25.557155,5.13777 -39.1261569,5.13777 H -86.817869 c -1.712591,0 -3.425188,-0.46111 -5.137779,-1.38324 -1.580854,-0.92217 -2.371278,-2.50302 -2.371278,-4.74257 z M 5.4645255,180.85083 c 11.8564115,0 23.2517375,-1.51498 34.1859855,-4.54495 10.934248,-3.02998 21.078071,-7.31146 30.431462,-12.84445 9.353391,-5.53299 17.850486,-12.11989 25.491284,-19.76069 7.772533,-7.77254 14.359423,-16.33549 19.760683,-25.68889 5.40125,-9.35339 9.551,-19.36547 12.44923,-30.03624 3.02997,-10.802506 4.54496,-21.934362 4.54496,-33.39556 0,-17.916352 -3.35932,-34.449463 -10.07795,-49.5993202 C 115.53155,-10.300869 106.37576,-23.474657 94.78283,-34.540641 83.321632,-45.606625 69.950235,-54.235455 54.668632,-60.427139 50.907381,-61.983519 47.090269,-63.348361 43.217292,-64.52167 31.354726,-68.1154 18.968074,-69.912268 6.0573461,-69.912268 H -72.392577 V 180.85083 Z"
     id="text1"
     aria-label="D" /></g>
</svg>
